<?xml version="1.0" encoding="iso-8859-1"?>
<!-- Generator: Adobe Illustrator 19.0.0, SVG Export Plug-In . SVG Version: 6.00 Build 0)  -->
<svg version="1.1" id="Layer_1" xmlns="http://www.w3.org/2000/svg" xmlns:xlink="http://www.w3.org/1999/xlink" x="0px" y="0px"
	 viewBox="0 0 512 512" style="enable-background:new 0 0 512 512;" xml:space="preserve">
<path style="fill:#2D527C;" d="M256,512C114.842,512,0,397.158,0,256c0-62.431,22.727-122.565,63.994-169.326
	c5.504-6.237,15.018-6.828,21.256-1.327c6.236,5.502,6.829,15.02,1.327,21.256C50.167,147.858,30.118,200.913,30.118,256
	c0,124.552,101.331,225.882,225.882,225.882S481.882,380.552,481.882,256S380.552,30.118,256,30.118
	c-34.483,0-67.578,7.563-98.361,22.48c-7.478,3.628-16.489,0.5-20.117-6.986c-3.626-7.484-0.5-16.491,6.986-20.117
	C179.417,8.578,216.93,0,256,0c141.158,0,256,114.842,256,256S397.158,512,256,512z"/>
<circle style="fill:#CEE8FA;" cx="256" cy="256" r="180.71"/>
<g>
	<path style="fill:#2D527C;" d="M256,451.765c-107.946,0-195.765-87.819-195.765-195.765S148.054,60.235,256,60.235
		S451.765,148.054,451.765,256S363.946,451.765,256,451.765z M256,90.353c-91.338,0-165.647,74.309-165.647,165.647
		S164.662,421.647,256,421.647S421.647,347.338,421.647,256S347.338,90.353,256,90.353z"/>
	<path style="fill:#2D527C;" d="M251.178,308.328c-10.618,0-21.237-4.042-29.321-12.125l-40.609-40.609
		c-5.88-5.88-5.88-15.416,0-21.298c5.882-5.879,15.414-5.879,21.298,0l40.609,40.609c2.143,2.143,4.992,3.323,8.023,3.323
		s5.88-1.181,8.023-3.323l62.3-62.301c5.882-5.879,15.414-5.879,21.298,0c5.88,5.88,5.88,15.416,0,21.298l-62.3,62.301
		C272.414,304.286,261.796,308.328,251.178,308.328z"/>
</g>
<g>
</g>
<g>
</g>
<g>
</g>
<g>
</g>
<g>
</g>
<g>
</g>
<g>
</g>
<g>
</g>
<g>
</g>
<g>
</g>
<g>
</g>
<g>
</g>
<g>
</g>
<g>
</g>
<g>
</g>
</svg>
